<svg xmlns="http://www.w3.org/2000/svg" viewBox="0 0 1600 900">
<defs><linearGradient id="bg2" x1="0" y1="0" x2="1" y2="1"><stop stop-color="#0b0d0c"/><stop offset=".55" stop-color="#171b18"/><stop offset="1" stop-color="#252a24"/></linearGradient><linearGradient id="pane" x1="0" y1="0" x2=".8" y2="1"><stop stop-color="#d5fff1" stop-opacity=".72"/><stop offset=".5" stop-color="#84baa9" stop-opacity=".28"/><stop offset="1" stop-color="#aecfc6" stop-opacity=".15"/></linearGradient></defs>
<rect width="1600" height="900" fill="url(#bg2)"/>
<rect x="0" y="0" width="640" height="900" fill="#0a0c0b" opacity=".55"/>
<g transform="translate(700 150)">
<rect x="0" y="0" width="520" height="560" rx="18" fill="url(#pane)" stroke="#d9fff5" stroke-opacity=".5" stroke-width="4"/>
<rect x="110" y="80" width="520" height="560" rx="18" fill="url(#pane)" stroke="#d9fff5" stroke-opacity=".65" stroke-width="4"/>
<rect x="220" y="160" width="520" height="560" rx="18" fill="url(#pane)" stroke="#d9fff5" stroke-opacity=".78" stroke-width="4"/>
</g>
<g transform="translate(270 260)" fill="none" stroke="#c7ff38" stroke-width="10"><path d="M110 0l100 38v100c0 78-46 140-100 166C56 278 10 216 10 138V38z"/><path d="M65 145l32 32 65-78"/></g>
<circle cx="390" cy="650" r="190" fill="#c7ff38" opacity=".045"/>
</svg>